<?xml version="1.0" encoding="UTF-8" standalone="no"?>
<!-- Created with Inkscape (http://www.inkscape.org/) -->

<svg
   xmlns:dc="http://purl.org/dc/elements/1.1/"
   xmlns:cc="http://creativecommons.org/ns#"
   xmlns:rdf="http://www.w3.org/1999/02/22-rdf-syntax-ns#"
   xmlns:svg="http://www.w3.org/2000/svg"
   xmlns="http://www.w3.org/2000/svg"
   xmlns:sodipodi="http://sodipodi.sourceforge.net/DTD/sodipodi-0.dtd"
   xmlns:inkscape="http://www.inkscape.org/namespaces/inkscape"
   width="210mm"
   height="297mm"
   viewBox="0 0 210 297"
   version="1.1"
   id="svg8"
   inkscape:version="0.92.4 (5da689c313, 2019-01-14)"
   sodipodi:docname="path.svg">
  <defs
     id="defs2" />
  <sodipodi:namedview
     id="base"
     pagecolor="#ffffff"
     bordercolor="#666666"
     borderopacity="1.0"
     inkscape:pageopacity="0.0"
     inkscape:pageshadow="2"
     inkscape:zoom="0.7"
     inkscape:cx="248.3389"
     inkscape:cy="577.0503"
     inkscape:document-units="mm"
     inkscape:current-layer="layer1"
     showgrid="false"
     inkscape:window-width="1920"
     inkscape:window-height="1027"
     inkscape:window-x="-8"
     inkscape:window-y="-1"
     inkscape:window-maximized="1" />
  <metadata
     id="metadata5">
    <rdf:RDF>
      <cc:Work
         rdf:about="">
        <dc:format>image/svg+xml</dc:format>
        <dc:type
           rdf:resource="http://purl.org/dc/dcmitype/StillImage" />
        <dc:title></dc:title>
      </cc:Work>
    </rdf:RDF>
  </metadata>
  <g
     inkscape:label="Layer 1"
     inkscape:groupmode="layer"
     id="layer1">
    <path
       style="fill:none;stroke:#000000;stroke-width:1.96500003;stroke-linecap:butt;stroke-linejoin:miter;stroke-miterlimit:4.4000001;stroke-dasharray:none;stroke-opacity:1"
       d="m 58.964284,105.36607 c 0,0 -4.913688,-30.238094 18.142857,-36.285712 23.056549,-6.047621 63.122029,21.166666 63.122029,21.166666 0,0 24.94643,24.190476 14.74107,52.916666 -10.20536,28.72619 -3.40179,43.08929 -26.83631,57.0744 -23.43453,13.98512 -18.14286,20.03274 -47.625001,10.58334 -29.482145,-9.44941 -45.357144,-10.96131 -39.687501,-27.97024 5.669644,-17.00893 39.309522,-21.54464 39.309522,-21.54464 0,0 27.21429,-0.37798 19.654763,-11.71726 -7.559524,-11.33929 1.133927,-31.37203 1.133927,-31.37203 0,0 4.15774,-27.970236 -16.630951,-9.4494 -20.78869,18.52083 -46.869046,32.50595 -25.324405,-3.40179 z"
       id="path815"
       inkscape:connector-curvature="0" />
  </g>
</svg>
